<mxfile host="app.diagrams.net" agent="Mozilla/5.0 (Windows NT 10.0; Win64; x64) AppleWebKit/537.36 (KHTML, like Gecko) Chrome/133.0.0.0 Safari/537.36" version="26.0.16">
  <diagram name="Page-1" id="vDqh4NYYyEadS4AQibSb">
    <mxGraphModel dx="1658" dy="1612" grid="1" gridSize="10" guides="1" tooltips="1" connect="1" arrows="1" fold="1" page="1" pageScale="1" pageWidth="850" pageHeight="1100" math="0" shadow="0">
      <root>
        <mxCell id="0" />
        <mxCell id="1" parent="0" />
        <mxCell id="yS2u5cCVOFFb_CQIxCVe-8" value="Player" style="swimlane;fontStyle=1;align=center;verticalAlign=top;childLayout=stackLayout;horizontal=1;startSize=30;horizontalStack=0;resizeParent=1;resizeParentMax=0;resizeLast=0;collapsible=1;marginBottom=0;whiteSpace=wrap;html=1;" parent="1" vertex="1">
          <mxGeometry x="-60" y="8" width="200" height="120" as="geometry" />
        </mxCell>
        <mxCell id="yS2u5cCVOFFb_CQIxCVe-9" value="- name : string&amp;nbsp;&lt;div&gt;- symbol : char&lt;/div&gt;" style="text;strokeColor=none;fillColor=none;align=left;verticalAlign=top;spacingLeft=4;spacingRight=4;overflow=hidden;rotatable=0;points=[[0,0.5],[1,0.5]];portConstraint=eastwest;whiteSpace=wrap;html=1;" parent="yS2u5cCVOFFb_CQIxCVe-8" vertex="1">
          <mxGeometry y="30" width="200" height="40" as="geometry" />
        </mxCell>
        <mxCell id="yS2u5cCVOFFb_CQIxCVe-10" value="" style="line;strokeWidth=1;fillColor=none;align=left;verticalAlign=middle;spacingTop=-1;spacingLeft=3;spacingRight=3;rotatable=0;labelPosition=right;points=[];portConstraint=eastwest;strokeColor=inherit;" parent="yS2u5cCVOFFb_CQIxCVe-8" vertex="1">
          <mxGeometry y="70" width="200" height="8" as="geometry" />
        </mxCell>
        <mxCell id="yS2u5cCVOFFb_CQIxCVe-11" value="+ chooseName() : void&lt;div&gt;+ chooseSymbol() : void&lt;/div&gt;&lt;div&gt;&lt;br&gt;&lt;/div&gt;" style="text;strokeColor=none;fillColor=none;align=left;verticalAlign=top;spacingLeft=4;spacingRight=4;overflow=hidden;rotatable=0;points=[[0,0.5],[1,0.5]];portConstraint=eastwest;whiteSpace=wrap;html=1;" parent="yS2u5cCVOFFb_CQIxCVe-8" vertex="1">
          <mxGeometry y="78" width="200" height="42" as="geometry" />
        </mxCell>
        <mxCell id="yS2u5cCVOFFb_CQIxCVe-13" value="Board" style="swimlane;fontStyle=1;align=center;verticalAlign=top;childLayout=stackLayout;horizontal=1;startSize=30;horizontalStack=0;resizeParent=1;resizeParentMax=0;resizeLast=0;collapsible=1;marginBottom=0;whiteSpace=wrap;html=1;" parent="1" vertex="1">
          <mxGeometry x="200" y="8" width="190" height="124" as="geometry" />
        </mxCell>
        <mxCell id="yS2u5cCVOFFb_CQIxCVe-14" value="- board : list" style="text;strokeColor=none;fillColor=none;align=left;verticalAlign=top;spacingLeft=4;spacingRight=4;overflow=hidden;rotatable=0;points=[[0,0.5],[1,0.5]];portConstraint=eastwest;whiteSpace=wrap;html=1;" parent="yS2u5cCVOFFb_CQIxCVe-13" vertex="1">
          <mxGeometry y="30" width="190" height="26" as="geometry" />
        </mxCell>
        <mxCell id="yS2u5cCVOFFb_CQIxCVe-15" value="" style="line;strokeWidth=1;fillColor=none;align=left;verticalAlign=middle;spacingTop=-1;spacingLeft=3;spacingRight=3;rotatable=0;labelPosition=right;points=[];portConstraint=eastwest;strokeColor=inherit;" parent="yS2u5cCVOFFb_CQIxCVe-13" vertex="1">
          <mxGeometry y="56" width="190" height="8" as="geometry" />
        </mxCell>
        <mxCell id="yS2u5cCVOFFb_CQIxCVe-16" value="+ displayBoard() : void&lt;div&gt;+ updateBoard() : void&lt;/div&gt;&lt;div&gt;+ resetBoard() : void&amp;nbsp;&lt;/div&gt;&lt;div&gt;&lt;br&gt;&lt;/div&gt;" style="text;strokeColor=none;fillColor=none;align=left;verticalAlign=top;spacingLeft=4;spacingRight=4;overflow=hidden;rotatable=0;points=[[0,0.5],[1,0.5]];portConstraint=eastwest;whiteSpace=wrap;html=1;" parent="yS2u5cCVOFFb_CQIxCVe-13" vertex="1">
          <mxGeometry y="64" width="190" height="60" as="geometry" />
        </mxCell>
        <mxCell id="yS2u5cCVOFFb_CQIxCVe-17" value="Menu" style="swimlane;fontStyle=1;align=center;verticalAlign=top;childLayout=stackLayout;horizontal=1;startSize=26;horizontalStack=0;resizeParent=1;resizeParentMax=0;resizeLast=0;collapsible=1;marginBottom=0;whiteSpace=wrap;html=1;" parent="1" vertex="1">
          <mxGeometry x="430" y="10" width="210" height="80" as="geometry" />
        </mxCell>
        <mxCell id="yS2u5cCVOFFb_CQIxCVe-18" value="- board : list" style="text;strokeColor=none;fillColor=none;align=left;verticalAlign=top;spacingLeft=4;spacingRight=4;overflow=hidden;rotatable=0;points=[[0,0.5],[1,0.5]];portConstraint=eastwest;whiteSpace=wrap;html=1;" parent="yS2u5cCVOFFb_CQIxCVe-17" vertex="1">
          <mxGeometry y="26" width="210" height="4" as="geometry" />
        </mxCell>
        <mxCell id="yS2u5cCVOFFb_CQIxCVe-19" value="" style="line;strokeWidth=1;fillColor=none;align=left;verticalAlign=middle;spacingTop=-1;spacingLeft=3;spacingRight=3;rotatable=0;labelPosition=right;points=[];portConstraint=eastwest;strokeColor=inherit;" parent="yS2u5cCVOFFb_CQIxCVe-17" vertex="1">
          <mxGeometry y="30" width="210" height="8" as="geometry" />
        </mxCell>
        <mxCell id="yS2u5cCVOFFb_CQIxCVe-20" value="+ displayMainMenu() : void&lt;div&gt;+ displayEndGameMenu() : void&lt;/div&gt;&lt;div&gt;&lt;br&gt;&lt;/div&gt;" style="text;strokeColor=none;fillColor=none;align=left;verticalAlign=top;spacingLeft=4;spacingRight=4;overflow=hidden;rotatable=0;points=[[0,0.5],[1,0.5]];portConstraint=eastwest;whiteSpace=wrap;html=1;" parent="yS2u5cCVOFFb_CQIxCVe-17" vertex="1">
          <mxGeometry y="38" width="210" height="42" as="geometry" />
        </mxCell>
        <mxCell id="yS2u5cCVOFFb_CQIxCVe-21" value="Game" style="swimlane;fontStyle=1;align=center;verticalAlign=top;childLayout=stackLayout;horizontal=1;startSize=26;horizontalStack=0;resizeParent=1;resizeParentMax=0;resizeLast=0;collapsible=1;marginBottom=0;whiteSpace=wrap;html=1;" parent="1" vertex="1">
          <mxGeometry x="170" y="280" width="210" height="200" as="geometry" />
        </mxCell>
        <mxCell id="yS2u5cCVOFFb_CQIxCVe-22" value="- board : Board&lt;div&gt;- players : player&lt;/div&gt;&lt;div&gt;- menu : Menu&lt;/div&gt;&lt;div&gt;- currentPlayerIndex : int&amp;nbsp;&lt;/div&gt;" style="text;strokeColor=none;fillColor=none;align=left;verticalAlign=top;spacingLeft=4;spacingRight=4;overflow=hidden;rotatable=0;points=[[0,0.5],[1,0.5]];portConstraint=eastwest;whiteSpace=wrap;html=1;" parent="yS2u5cCVOFFb_CQIxCVe-21" vertex="1">
          <mxGeometry y="26" width="210" height="64" as="geometry" />
        </mxCell>
        <mxCell id="yS2u5cCVOFFb_CQIxCVe-23" value="" style="line;strokeWidth=1;fillColor=none;align=left;verticalAlign=middle;spacingTop=-1;spacingLeft=3;spacingRight=3;rotatable=0;labelPosition=right;points=[];portConstraint=eastwest;strokeColor=inherit;" parent="yS2u5cCVOFFb_CQIxCVe-21" vertex="1">
          <mxGeometry y="90" width="210" height="8" as="geometry" />
        </mxCell>
        <mxCell id="yS2u5cCVOFFb_CQIxCVe-24" value="+ startGame() : void&lt;div&gt;+ playTurn() : void&lt;/div&gt;&lt;div&gt;+ checkWin() : void&lt;/div&gt;&lt;div&gt;+ checkDraw() : void&lt;/div&gt;&lt;div&gt;+ restartGame() : void&lt;/div&gt;&lt;div&gt;+ quitGame() : void&lt;/div&gt;" style="text;strokeColor=none;fillColor=none;align=left;verticalAlign=top;spacingLeft=4;spacingRight=4;overflow=hidden;rotatable=0;points=[[0,0.5],[1,0.5]];portConstraint=eastwest;whiteSpace=wrap;html=1;" parent="yS2u5cCVOFFb_CQIxCVe-21" vertex="1">
          <mxGeometry y="98" width="210" height="102" as="geometry" />
        </mxCell>
        <mxCell id="yS2u5cCVOFFb_CQIxCVe-25" value="" style="endArrow=diamond;html=1;rounded=0;entryX=0.227;entryY=-0.013;entryDx=0;entryDy=0;entryPerimeter=0;endFill=1;exitX=0.377;exitY=1.075;exitDx=0;exitDy=0;exitPerimeter=0;" parent="1" source="yS2u5cCVOFFb_CQIxCVe-11" target="yS2u5cCVOFFb_CQIxCVe-21" edge="1">
          <mxGeometry width="50" height="50" relative="1" as="geometry">
            <mxPoint x="140" y="134" as="sourcePoint" />
            <mxPoint x="340" y="220" as="targetPoint" />
            <Array as="points" />
          </mxGeometry>
        </mxCell>
        <mxCell id="yS2u5cCVOFFb_CQIxCVe-28" value="" style="endArrow=diamond;html=1;rounded=0;exitX=0.334;exitY=1.038;exitDx=0;exitDy=0;exitPerimeter=0;endFill=1;entryX=0.657;entryY=-0.007;entryDx=0;entryDy=0;entryPerimeter=0;" parent="1" source="yS2u5cCVOFFb_CQIxCVe-16" target="yS2u5cCVOFFb_CQIxCVe-21" edge="1">
          <mxGeometry width="50" height="50" relative="1" as="geometry">
            <mxPoint x="290" y="280" as="sourcePoint" />
            <mxPoint x="250" y="280" as="targetPoint" />
            <Array as="points" />
          </mxGeometry>
        </mxCell>
        <mxCell id="yS2u5cCVOFFb_CQIxCVe-29" value="" style="endArrow=diamond;html=1;rounded=0;exitX=0.352;exitY=1.061;exitDx=0;exitDy=0;exitPerimeter=0;entryX=0.848;entryY=-0.003;entryDx=0;entryDy=0;entryPerimeter=0;endFill=1;" parent="1" source="yS2u5cCVOFFb_CQIxCVe-20" target="yS2u5cCVOFFb_CQIxCVe-21" edge="1">
          <mxGeometry width="50" height="50" relative="1" as="geometry">
            <mxPoint x="290" y="280" as="sourcePoint" />
            <mxPoint x="340" y="230" as="targetPoint" />
          </mxGeometry>
        </mxCell>
        <mxCell id="BLleQCCLe2cq2sZoEygJ-2" value="1. run the app&amp;nbsp;&lt;div&gt;2. main menu&lt;/div&gt;&lt;div&gt;3. game start, quit the game&lt;/div&gt;&lt;div&gt;4. player 1 name, symbol, player 2 name. symbol&lt;/div&gt;&lt;div&gt;5. display board&lt;/div&gt;&lt;div&gt;6. game loops until win or drew&amp;nbsp;&lt;/div&gt;&lt;div&gt;7. restart game, quit game&lt;/div&gt;" style="rounded=0;whiteSpace=wrap;html=1;" vertex="1" parent="1">
          <mxGeometry x="146.5" y="-230" width="297" height="130" as="geometry" />
        </mxCell>
      </root>
    </mxGraphModel>
  </diagram>
</mxfile>
